<?xml version="1.0" encoding="utf-8"?>
<!-- Generator: Adobe Illustrator 25.2.1, SVG Export Plug-In . SVG Version: 6.00 Build 0)  -->
<svg version="1.1" id="Layer_1" xmlns="http://www.w3.org/2000/svg" xmlns:xlink="http://www.w3.org/1999/xlink" x="0px" y="0px"
	 viewBox="0 0 566.9 147.4" style="enable-background:new 0 0 566.9 147.4;" xml:space="preserve">
<style type="text/css">
	.st0{fill:#FFFFFF;}
</style>
<g>
	<path class="st0" d="M241.5,43l-4.5,4.7v9.5h-10V9h10v26.5l12.8-13.2h11.4l-12.8,13.5l13.4,21.5H250L241.5,43z"/>
	<path class="st0" d="M299,39.7c0,10.7-7.5,17.9-18.7,17.9s-18.8-7.2-18.8-17.9s7.5-17.8,18.8-17.8C291.5,21.9,299,29,299,39.7z
		 M271.6,39.9c0,5.7,3.5,9.6,8.7,9.6c5.1,0,8.7-3.9,8.7-9.6s-3.6-9.6-8.7-9.6C275.1,30.2,271.6,34.1,271.6,39.9z"/>
	<path class="st0" d="M326.9,55.3c-2.6,1.5-5.9,2.4-9.1,2.4c-6.2,0-11-3.6-11-10.8V30.7H302v-6.9h4.9v-9.6h9.9v9.6h9.5v7h-9.5v14.4
		c0,2.9,1.2,4.1,3.4,4c1.3,0,2.9-0.5,4.7-1.3L326.9,55.3z"/>
	<path class="st0" d="M343.4,12.2c0,3.3-2.2,5.6-5.4,5.6c-3.2,0-5.4-2.3-5.4-5.6s2.2-5.6,5.4-5.6C341.2,6.6,343.4,9,343.4,12.2z
		 M343,22.3v35h-10v-35H343z"/>
	<path class="st0" d="M364,29.1c-2.3,0-4,0.8-4,2.6c0,5.3,18.5,2.6,18.4,15c0,7.2-6.3,10.9-14.2,10.9c-5.7,0-11.2-1.7-15.1-4.9
		l3.3-6.8c3.6,2.8,8.3,4.4,12.2,4.4c2.5,0,4.4-0.8,4.4-2.7c0-5.6-18.1-2.6-18.1-14.9c0-7.2,6.2-10.9,13.8-10.9
		c4.8,0,9.8,1.4,13.7,3.9l-3.4,6.8C370.8,30.4,366.9,29.1,364,29.1z"/>
	<path class="st0" d="M395.5,12.2c0,3.3-2.2,5.6-5.4,5.6c-3.2,0-5.4-2.3-5.4-5.6s2.2-5.6,5.4-5.6C393.3,6.6,395.5,9,395.5,12.2z
		 M395.1,22.3v35h-10v-35H395.1z"/>
	<path class="st0" d="M410,22.3l8.3,25.5l8.2-25.5h9.9l-13.2,35H413l-13.3-34.9L410,22.3z"/>
	<path class="st0" d="M474.1,22.3v35h-9.9V51c-2.4,4.4-6.4,6.6-11.7,6.6c-7.7,0-12.6-5.1-12.6-13.4v-22h10v19.1
		c0,4.4,2.5,7.1,6.6,7.1c4.8-0.1,7.7-3.8,7.7-8.9V22.3H474.1z"/>
	<path class="st0" d="M505.4,55.3c-2.6,1.5-5.9,2.4-9.1,2.4c-6.2,0-11-3.6-11-10.8V30.7h-4.9v-6.9h4.9v-9.6h9.9v9.6h9.5v7h-9.5v14.4
		c0,2.9,1.2,4.1,3.4,4c1.3,0,2.9-0.5,4.7-1.3L505.4,55.3z"/>
	<path class="st0" d="M541.5,8.5c2.4,0,4.9,0.5,6.8,1.4l-0.4,8.3c-1.7-0.8-3.6-1.4-5.1-1.4c-2.4-0.1-4.2,1.2-4.2,4v2.7h8.3v6.9h-8.3
		v26.8h-9.9V30.4H524v-6.9h4.7v-3.1C528.6,12.6,534.6,8.5,541.5,8.5z M550.5,12.2c0-3.3,2.2-5.6,5.4-5.6s5.4,2.3,5.4,5.6
		s-2.2,5.6-5.4,5.6S550.5,15.5,550.5,12.2z M550.9,22.3h10v35h-10V22.3z"/>
	<path class="st0" d="M520.7,52.6c0,3-2.1,5.2-5,5.2s-5-2.2-5-5.2c0-3.1,2.1-5.1,5-5.1C518.7,47.5,520.7,49.6,520.7,52.6z"/>
</g>
<g>
	<path class="st0" d="M216.2,47.9l2.1,7.3c-2.6,1.5-5.8,2.4-9.1,2.4c-6.2,0-11-3.6-11-10.8V30.7h-4.9v-6.9h4.9v-9.6h9.9v9.6h9.5v7
		h-9.5v14.4c0,2.9,1.2,4.1,3.4,4C212.8,49.2,214.4,48.8,216.2,47.9z"/>
	<path class="st0" d="M208.3,91.2c0.4,1.4-0.4,2.8-1.8,3.2h-0.1c-0.7,0.2-1.3,0.1-1.9-0.3c-0.6-0.3-1.1-0.9-1.2-1.6l-5.9-20.8
		c-0.4-1.6-1.6-2.8-3.2-3.2c-1.7-0.5-3.6,0.1-4.8,1.4c-1.1,1.2-1.4,2.8-1,4.4l5,17.3c0.4,1.4-0.4,2.9-1.8,3.3
		c-0.4,0.1-0.7,0.1-0.9,0.1c-1.1-0.1-2-0.8-2.3-1.9l-11.8-41.4c-0.4-1.5-1.6-2.7-3.1-3.2c-1.7-0.5-3.6,0-4.8,1.3
		c-1.1,1.2-1.5,2.9-1,4.4l14,49.1c0.4,1.3-0.1,2.6-1.2,3.3c-1.1,0.8-2.5,0.8-3.5,0l-9.9-7c-2-1.4-5.1-0.9-6.5,1.2
		c-0.7,1-1,2.3-0.8,3.5s1.2,2.2,2.2,3.3c1,1.1,22,23,22,23c3.8,4,9.5,5.6,14.9,4l29.1-8.3c7.9-2.3,12.5-10.5,10.2-18.4
		c0,0-3.2-11.2-4.6-15.9l-5.4-18.9c-0.3-1-0.5-1.8-0.6-2.4l-0.1-0.3c-0.4-1.3-1.2-2.3-2.4-2.9s-2.5-0.7-3.8-0.2
		c-2.2,0.9-3.4,3.5-2.7,5.9l4.9,17.1c0.2,0.7,0.1,1.4-0.3,2c-0.3,0.6-0.9,1-1.6,1.2c-0.3,0.1-0.6,0.1-0.9,0.1
		c-1.1-0.1-2-0.8-2.3-1.9l-5.1-17.8c-0.3-1.1-0.6-2-0.7-2.7l-0.1-0.3c-0.4-1.3-1.2-2.3-2.4-2.9s-2.6-0.7-3.8-0.2
		c-2.2,0.8-3.4,3.4-2.7,5.9L208.3,91.2z M243.1,106.8c1.5,5.2,0.8,10.6-1.8,15.3c-2.6,4.7-6.9,8.1-12.1,9.6l-29.1,8.3
		c-1.8,0.5-3.7,0.8-5.6,0.8c-5.4,0-10.7-2.2-14.6-6.3c0,0-20.3-21.3-21.8-22.8c-1.5-1.6-3.4-3.8-3.8-6.2c-0.4-2.6,0.1-5.2,1.6-7.4
		c1.3-1.9,3.2-3.3,5.4-3.9c2.9-0.8,5.9-0.3,8.4,1.4l4.8,3.4l-12.3-43.2l0,0c-6.1-2.8-9.9-8.5-9.9-16.1c0-10.7,7.5-17.8,18.8-17.8
		c11.2,0,18.7,7.1,18.7,17.8c0,6.4-2.7,11.6-7.3,14.7L186,66c1.2-1.1,2.6-2,4.2-2.4c2.6-0.7,5.2-0.4,7.6,0.9
		c0.9,0.5,1.7,1.1,2.4,1.9c1.1-1.4,2.5-2.5,4.1-3.1c3.8-1.5,8.1-0.5,10.9,2.5c1.1-1.4,2.5-2.5,4.1-3.1c2.6-1,5.5-0.9,8,0.3
		s4.4,3.5,5.1,6.2l0.6,2.1l5.1,17.8l0,0c0.2,0.6,0.4,1.2,0.6,2l0.1,0.4L243.1,106.8z M178.4,45.6c1-1.5,1.5-3.5,1.5-5.7
		c0-5.7-3.6-9.6-8.7-9.6c-5.2,0-8.7,3.9-8.7,9.6c0,2.6,0.8,4.9,2.1,6.5c1.2-1.3,2.8-2.3,4.6-2.9c2.5-0.7,5.2-0.4,7.5,0.9
		C177.4,44.8,177.9,45.2,178.4,45.6z"/>
	<path class="st0" d="M148.8,39.9c0,10.6-6.4,17.7-16.3,17.7c-4.9,0-8.7-2-11.2-5.5v17.7h-10V22.3h10v5.1c2.5-3.5,6.3-5.5,11-5.5
		C142.2,21.9,148.8,29.1,148.8,39.9z M138.7,39.6c0-5.6-3.5-9.6-8.6-9.6c-5.1,0-8.7,4-8.7,9.6c0,5.8,3.6,9.7,8.7,9.7
		C135.2,49.3,138.7,45.3,138.7,39.6z"/>
	<rect x="92.9" y="9" class="st0" width="10" height="48.2"/>
	<path class="st0" d="M70.3,21.9c12.3,0,18,8.1,17.2,20.9H62.4c1.2,4.4,4.6,7,9,7c3.3,0,6.4-1.3,8.8-3.7l5.3,5.3
		c-3.5,3.9-8.7,6.2-15,6.2c-11.2,0-18.3-7.1-18.3-17.8C52.3,29.1,59.6,21.9,70.3,21.9z M62.2,36.9h15.9c-0.1-4.6-3.1-7.6-7.7-7.6
		C65.9,29.3,62.9,32.3,62.2,36.9z"/>
	<polygon class="st0" points="46.7,11.7 46.7,57.2 36.5,57.2 36.5,39.3 15.9,39.3 15.9,57.2 5.6,57.2 5.6,11.7 15.9,11.7 15.9,30.7 
		36.5,30.7 36.5,11.7 	"/>
</g>
</svg>
